HIERARCHY
ROOT SpineBase
{
  OFFSET 0.000000 0.000000 0.000000
  CHANNELS 6 Xposition Yposition Zposition Zrotation Xrotation Yrotation
  JOINT SpineMid
  {
    OFFSET -0.000000 23.322267 0.000000
    CHANNELS 3 Zrotation Xrotation Yrotation
    JOINT SpineShoulder
    {
      OFFSET -0.018078 17.444156 -0.494538
      CHANNELS 3 Zrotation Xrotation Yrotation
      JOINT Neck
      {
        OFFSET 0.016613 5.781186 -0.324594
        CHANNELS 3 Zrotation Xrotation Yrotation
        JOINT Head
        {
          OFFSET 2.885337 11.293229 1.027265
          CHANNELS 3 Zrotation Xrotation Yrotation
          End Site
          {
            OFFSET 0 0 0
          }
        }
      }
      JOINT ShoulderLeft
      {
        OFFSET -4.721350 -3.713287 -8.150703
        CHANNELS 3 Zrotation Xrotation Yrotation
        JOINT ElbowLeft
        {
          OFFSET 5.116699 -17.982742 -8.351575
          CHANNELS 3 Zrotation Xrotation Yrotation
          JOINT WristLeft
          {
            OFFSET 6.018549 -19.143018 0.097412
            CHANNELS 3 Zrotation Xrotation Yrotation
            JOINT HandLeft
            {
              OFFSET 1.478001 -5.942276 1.472479
              CHANNELS 3 Zrotation Xrotation Yrotation
              JOINT HandTipLeft
              {
                OFFSET 2.269356 -4.955398 0.173974
                CHANNELS 3 Zrotation Xrotation Yrotation
                End Site
                {
                  OFFSET 0 0 0
                }
              }
              JOINT ThumbLeft
              {
                OFFSET 1.656912 1.426038 -1.474265
                CHANNELS 3 Zrotation Xrotation Yrotation
                End Site
                {
                  OFFSET 0 0 0
                }
              }
            }
          }
        }
      }
      JOINT ShoulderRight
      {
        OFFSET 8.913713 -4.071461 18.435238
        CHANNELS 3 Zrotation Xrotation Yrotation
        JOINT ElbowRight
        {
          OFFSET -16.418448 -6.317990 -10.624121
          CHANNELS 3 Zrotation Xrotation Yrotation
          JOINT WristRight
          {
            OFFSET 7.644766 -16.754315 6.937284
            CHANNELS 3 Zrotation Xrotation Yrotation
            JOINT HandRight
            {
              OFFSET 1.210454 -4.435923 0.337752
              CHANNELS 3 Zrotation Xrotation Yrotation
              JOINT HandTipRight
              {
                OFFSET 3.319524 -4.152910 3.921203
                CHANNELS 3 Zrotation Xrotation Yrotation
                End Site
                {
                  OFFSET 0 0 0
                }
              }
              JOINT ThumbRight
              {
                OFFSET 2.298597 3.235123 -0.628149
                CHANNELS 3 Zrotation Xrotation Yrotation
                End Site
                {
                  OFFSET 0 0 0
                }
              }
            }
          }
        }
      }
    }
  }
  JOINT HipLeft
  {
    OFFSET -1.389711 0.183214 -7.589572
    CHANNELS 3 Zrotation Xrotation Yrotation
    JOINT KneeLeft
    {
      OFFSET -0.119295 -24.759004 1.811141
      CHANNELS 3 Zrotation Xrotation Yrotation
      JOINT AnkleLeft
      {
        OFFSET -4.105796 -69.867569 9.516840
        CHANNELS 3 Zrotation Xrotation Yrotation
        JOINT FootLeft
        {
          OFFSET 4.050422 -4.947581 0.735694
          CHANNELS 3 Zrotation Xrotation Yrotation
          End Site
          {
            OFFSET 0 0 0
          }
        }
      }
    }
  }
  JOINT HipRight
  {
    OFFSET 1.363829 0.098747 3.100491
    CHANNELS 3 Zrotation Xrotation Yrotation
    JOINT KneeRight
    {
      OFFSET 9.377630 -22.431994 -9.133412
      CHANNELS 3 Zrotation Xrotation Yrotation
      JOINT AnkleRight
      {
        OFFSET -12.969505 -29.170190 12.587878
        CHANNELS 3 Zrotation Xrotation Yrotation
        JOINT FootRight
        {
          OFFSET -0.328174 -9.624494 -2.436464
          CHANNELS 3 Zrotation Xrotation Yrotation
          End Site
          {
            OFFSET 0 0 0
          }
        }
      }
    }
  }
}
MOTION
Frames: 9
Frame Time: 0.033333
-4.413809 100.013283 335.696281 -0.000000 0.000000 -75.555768 -0.000000 0.000000 75.555768 -0.000000 0.000000 0.000000 -0.000000 0.000000 0.000000 0.000000 0.000000 0.000000 -0.000000 0.000000 0.000000 -0.000000 0.000000 0.000000 -0.000000 0.000000 0.000000 -0.000000 0.000000 0.000000 0.000000 0.000000 0.000000 0.000000 0.000000 0.000000 -0.000000 0.000000 0.000000 -0.000000 0.000000 0.000000 -0.000000 0.000000 0.000000 -0.000000 0.000000 0.000000 0.000000 0.000000 0.000000 0.000000 0.000000 0.000000 -0.000000 0.000000 75.555768 -0.000000 0.000000 0.000000 -0.000000 0.000000 0.000000 0.000000 0.000000 0.000000 -0.000000 0.000000 75.555768 -0.000000 0.000000 0.000000 -0.000000 0.000000 0.000000 0.000000 0.000000 0.000000
-4.342202 99.844730 335.787998 0.125521 -0.117165 -75.655203 -0.144611 -0.092579 75.655215 -0.000000 0.000000 0.000000 -0.000000 0.000000 0.000000 0.000000 0.000000 0.000000 3.260136 0.199023 -1.450528 -6.369882 -0.045152 1.511555 -0.519298 0.182313 -0.862390 2.291241 0.486349 1.188504 0.000000 0.000000 0.000000 0.000000 0.000000 0.000000 -0.000000 0.000000 0.000000 -0.000000 0.000000 0.000000 -0.000000 0.000000 0.000000 -0.000000 0.000000 0.000000 0.000000 0.000000 0.000000 0.000000 0.000000 0.000000 -0.144611 -0.092579 75.655215 -0.000000 0.000000 0.000000 0.031127 1.374170 1.131026 0.000000 0.000000 0.000000 -0.144611 -0.092579 75.655215 -0.000000 0.000000 0.000000 -0.000000 0.000000 0.000000 0.000000 0.000000 0.000000
-4.259975 99.693217 335.854935 0.227719 -0.211953 -75.749142 -0.261488 -0.168535 75.749178 -0.000000 0.000000 0.000000 0.715874 -0.437125 0.049391 0.000000 0.000000 0.000000 5.868410 0.285402 -2.619527 -11.517475 -0.286424 2.671339 -1.374884 0.532247 -1.618701 4.539753 0.739156 2.242967 0.000000 0.000000 0.000000 0.000000 0.000000 0.000000 -0.000000 0.000000 0.000000 -0.000000 0.000000 0.000000 -0.000000 0.000000 0.000000 -0.000000 0.000000 0.000000 0.000000 0.000000 0.000000 0.000000 0.000000 0.000000 -0.261488 -0.168535 75.749178 -0.000000 0.000000 0.000000 0.180889 2.498185 2.072275 0.000000 0.000000 0.000000 -0.261488 -0.168535 75.749178 -0.000000 0.000000 0.000000 -0.000000 0.000000 0.000000 0.000000 0.000000 0.000000
-4.167127 99.558744 335.897091 0.307161 -0.284902 -75.839648 -0.351388 -0.228131 75.839712 -0.000000 0.000000 0.000000 1.014427 -0.592433 0.064507 0.000000 0.000000 0.000000 7.797527 0.298354 -3.489397 -15.387286 -0.605809 3.482028 -2.214776 0.982461 -2.177886 6.398771 0.782273 3.058361 0.000000 0.000000 0.000000 0.000000 0.000000 0.000000 -0.000000 0.000000 0.000000 -0.000000 0.000000 0.000000 -0.000000 0.000000 0.000000 -0.000000 0.000000 0.000000 0.000000 0.000000 0.000000 0.000000 0.000000 0.000000 -0.351388 -0.228131 75.839712 -0.000000 0.000000 0.000000 0.458473 3.382599 2.827244 0.000000 0.000000 0.000000 -1.201048 -0.281720 76.279795 0.253570 -0.812703 -0.442065 -0.000000 0.000000 0.000000 0.000000 0.000000 0.000000
-4.063659 99.441311 335.914466 0.364303 -0.336442 -75.928536 -0.414919 -0.271572 75.928622 -0.000000 0.000000 0.000000 1.271490 -0.704439 0.072380 0.000000 0.000000 0.000000 9.039398 0.268582 -4.054298 -17.959223 -0.916752 3.964318 -2.691626 1.448503 -2.467127 7.528693 0.638943 3.533010 0.000000 0.000000 0.000000 0.000000 0.000000 0.000000 -0.000000 0.000000 0.000000 -0.000000 0.000000 0.000000 -0.000000 0.000000 0.000000 -0.000000 0.000000 0.000000 0.000000 0.000000 0.000000 0.000000 0.000000 0.000000 -0.414919 -0.271572 75.928622 -0.000000 0.000000 0.000000 0.871264 4.036096 3.400095 0.000000 0.000000 0.000000 -1.396798 -0.395886 76.453686 0.350819 -0.925442 -0.527950 -0.000000 0.000000 0.000000 0.000000 0.000000 0.000000
-3.949571 99.340919 335.907061 0.399491 -0.366899 -76.017479 -0.452554 -0.299003 76.017577 -0.000000 0.000000 0.000000 1.485994 -0.772634 0.072532 0.000000 0.000000 0.000000 9.594874 0.216226 -4.314238 -19.229714 -1.164904 4.140474 -2.566190 1.860507 -2.451638 7.693693 0.330625 3.595621 0.000000 0.000000 0.000000 0.000000 0.000000 0.000000 -0.000000 0.000000 0.000000 -0.000000 0.000000 0.000000 -0.000000 0.000000 0.000000 0.382069 0.398470 0.678344 0.000000 0.000000 0.000000 0.000000 0.000000 0.000000 -0.452554 -0.299003 76.017577 -0.000000 0.000000 0.000000 1.425189 4.464824 3.795389 0.000000 0.000000 0.000000 -1.491120 -0.519342 76.597451 0.455037 -0.959205 -0.583482 -0.000000 0.000000 0.000000 0.000000 0.000000 0.000000
-3.795220 99.194471 335.863325 0.454190 -0.354062 -76.635506 -0.449457 -0.360051 76.635497 -0.000000 0.000000 0.000000 1.529500 -0.837745 0.086440 0.000000 0.000000 0.000000 9.004233 -0.013868 -4.099832 -18.616645 -1.276326 3.847538 -1.437334 2.141226 -2.026534 7.014718 0.592582 3.420934 0.000000 0.000000 0.000000 0.000000 0.000000 0.000000 -0.000000 0.000000 0.000000 -0.000000 0.000000 0.000000 -0.000000 0.000000 0.000000 0.486752 0.521345 0.874880 0.000000 0.000000 0.000000 0.000000 0.000000 0.000000 -0.449457 -0.360051 76.635497 -0.000000 0.000000 0.000000 2.292066 4.258365 3.701969 0.000000 0.000000 0.000000 -1.809802 -0.631800 77.384650 0.562232 -1.268145 -0.754706 -0.000000 0.000000 0.000000 0.000000 0.000000 0.000000
-3.678128 99.144517 335.799306 0.482312 -0.329978 -76.850156 -0.431050 -0.394596 76.850061 -0.000000 0.000000 0.000000 1.934129 -0.673411 0.007506 0.000000 0.000000 0.000000 8.067797 -0.220420 -3.727432 -16.069962 -1.170705 3.463522 -1.825310 3.485710 -1.245660 6.805778 -1.630745 2.335274 0.000000 0.000000 0.000000 0.000000 0.000000 0.000000 -0.000000 0.000000 0.000000 -0.000000 0.000000 0.000000 -0.000000 0.000000 0.000000 0.591483 0.621080 1.052745 0.000000 0.000000 0.000000 0.000000 0.000000 0.000000 -0.431050 -0.394596 76.850061 -0.911148 -0.082984 -0.119828 4.718835 4.152428 3.788117 0.000000 0.000000 0.000000 -1.607842 -0.762830 77.536175 0.613470 -1.069573 -0.692275 -1.210204 0.122656 0.303298 0.000000 0.000000 0.000000
-3.570520 99.121670 335.683569 0.407792 -0.267854 -76.553515 -0.355338 -0.334327 76.553432 -0.000000 0.000000 0.000000 2.487924 -0.455594 -0.100644 0.000000 0.000000 0.000000 5.759390 -0.317518 -2.715526 -12.279346 -1.062857 2.386423 0.480031 3.190639 -0.466831 3.884103 -2.768087 0.667316 0.000000 0.000000 0.000000 0.000000 0.000000 0.000000 -0.000000 0.000000 0.000000 -0.000000 0.000000 0.000000 -0.000000 0.000000 0.000000 0.670824 0.697792 1.188317 0.000000 0.000000 0.000000 0.000000 0.000000 0.000000 -0.355338 -0.334327 76.553432 -1.103089 -0.005749 -0.149891 5.687305 4.226825 4.001853 0.000000 0.000000 0.000000 -0.961605 -0.972536 77.041685 0.757880 -0.447712 -0.492207 -1.152068 -0.583393 0.305974 0.000000 0.000000 0.000000
